<svg viewBox="0 0 64 64" xmlns="http://www.w3.org/2000/svg"><path d="m58.55 45.06 1.37-4.36c.13-.41.09-.84-.11-1.22s-.53-.66-.93-.78c-.26-.09-.54-.1-.81-.04l-6.44 1.36-20.82-16.33c-.79-.62-1.85-.74-2.76-.33l-2.08.96.04-7.75c0-1.05-.7-1.98-1.72-2.25l-7.77-2.08c-.88-.24-1.8-.13-2.61.29l-9.2 4.83a1.328 1.328 0 0 0-.56 1.79c.2.38.57.64 1 .7l6.99.89-2.89 10.8c-.24.88-.11 1.84.36 2.63l6.73 11.43-1.89 4.95c-.14.37-.05.78.22 1.06.19.2.45.3.71.3.11 0 .23-.02.34-.06l14.23-5.1h26.32c1.05 0 1.96-.67 2.28-1.67Zm-1.78-1.01-3.09-2.42 4.13-.87-1.04 3.3ZM28.88 25.18c.23-.11.49-.08.69.08l24.82 19.47H30.56l-4.44-18.28 2.76-1.27ZM7.54 18.12l6.17-3.24-1.04 3.9-5.12-.65Zm8.43-3.96h.02l7.77 2.08c.14.04.24.17.24.31l-.04 8.68-12.49 5.74 4.51-16.8Zm-4.6 19.05 11.77-5.41-5.89 15.38-5.88-9.98Zm5.72 16 1.29-3.36 6.36-16.61 3.85 15.86-11.5 4.12Z" fill="#ffffff" class="fill-000000"></path></svg>